<svg xmlns="http://www.w3.org/2000/svg" viewBox="0 0 512 512" fill="none" stroke="currentColor" stroke-width="2">
  <rect width="512" height="512" rx="100" fill="#000000"/>
  <path d="M 128 128 L 384 128 L 384 384 L 128 384 Z" stroke="#ffffff" stroke-width="8" fill="none"/>
  <path d="M 160 160 L 352 160 L 352 200 L 160 200 Z" stroke="#ffffff" stroke-width="4" fill="#ffffff"/>
  <path d="M 160 220 L 352 220 L 352 240 L 160 240 Z" stroke="#ffffff" stroke-width="2" fill="none"/>
  <path d="M 160 260 L 352 260 L 352 280 L 160 280 Z" stroke="#ffffff" stroke-width="2" fill="none"/>
  <path d="M 160 300 L 352 300 L 352 320 L 160 320 Z" stroke="#ffffff" stroke-width="2" fill="none"/>
  <path d="M 160 340 L 280 340 L 280 360 L 160 360 Z" stroke="#ffffff" stroke-width="2" fill="none"/>
  <circle cx="320" cy="350" r="20" stroke="#ffffff" stroke-width="3" fill="none"/>
  <path d="M 320 330 L 320 370 M 300 350 L 340 350" stroke="#ffffff" stroke-width="2"/>
</svg>